<svg xmlns="http://www.w3.org/2000/svg" viewBox="0 0 1024 1024" width="1024" height="1024">
  <path d="M 741.0 729.5 L 638.0 729.5 L 637.0 728.5 L 626.0 728.5 L 625.0 727.5 L 618.0 727.5 L 617.0 726.5 L 613.0 726.5 L 612.0 725.5 L 609.0 725.5 L 608.0 724.5 L 606.0 724.5 L 605.0 723.5 L 603.0 723.5 L 600.0 721.5 L 598.0 721.5 L 597.0 720.5 L 596.0 720.5 L 595.0 719.5 L 594.0 719.5 L 592.0 717.5 L 591.0 717.5 L 587.0 713.5 L 586.0 713.5 L 571.5 699.0 L 571.5 698.0 L 564.5 691.0 L 564.5 690.0 L 558.5 684.0 L 558.5 683.0 L 554.5 679.0 L 554.5 678.0 L 550.5 674.0 L 550.5 673.0 L 546.5 669.0 L 546.5 668.0 L 542.5 664.0 L 542.5 663.0 L 539.5 660.0 L 539.5 659.0 L 535.5 655.0 L 535.5 654.0 L 532.5 651.0 L 532.5 650.0 L 528.5 646.0 L 528.5 645.0 L 525.5 642.0 L 525.5 641.0 L 521.5 637.0 L 521.5 636.0 L 518.5 633.0 L 518.5 632.0 L 515.5 629.0 L 515.5 628.0 L 511.5 624.0 L 511.5 623.0 L 508.5 620.0 L 508.5 619.0 L 504.5 615.0 L 504.5 614.0 L 501.5 611.0 L 501.5 610.0 L 497.5 606.0 L 497.5 605.0 L 494.5 602.0 L 494.5 601.0 L 489.5 596.0 L 489.5 595.0 L 486.5 592.0 L 486.5 591.0 L 482.5 587.0 L 482.5 586.0 L 476.5 580.0 L 476.5 579.0 L 471.5 574.0 L 471.5 573.0 L 456.0 557.5 L 455.0 557.5 L 453.0 555.5 L 452.5 556.0 L 452.5 564.0 L 451.5 565.0 L 451.5 578.0 L 452.5 579.0 L 452.5 585.0 L 451.5 586.0 L 451.5 589.0 L 452.5 590.0 L 452.5 670.0 L 453.5 671.0 L 453.5 675.0 L 454.5 676.0 L 454.5 679.0 L 455.5 680.0 L 455.5 683.0 L 456.5 684.0 L 456.5 687.0 L 457.5 688.0 L 457.5 690.0 L 458.5 691.0 L 458.5 692.0 L 459.5 693.0 L 459.5 694.0 L 460.5 695.0 L 460.5 696.0 L 461.5 697.0 L 461.5 698.0 L 463.5 700.0 L 463.5 701.0 L 466.5 704.0 L 466.5 705.0 L 470.0 708.5 L 471.0 708.5 L 474.0 711.5 L 475.0 711.5 L 476.0 712.5 L 477.0 712.5 L 479.0 714.5 L 481.0 714.5 L 482.0 715.5 L 483.0 715.5 L 484.0 716.5 L 485.0 716.5 L 488.0 718.5 L 490.0 718.5 L 491.0 719.5 L 493.0 719.5 L 496.5 723.0 L 496.5 726.0 L 495.5 727.0 L 495.5 728.0 L 495.0 728.5 L 494.0 728.5 L 493.0 729.5 L 315.0 729.5 L 314.0 728.5 L 313.0 728.5 L 311.5 727.0 L 311.5 722.0 L 314.0 719.5 L 317.0 719.5 L 318.0 718.5 L 320.0 718.5 L 321.0 717.5 L 323.0 717.5 L 326.0 715.5 L 328.0 715.5 L 329.0 714.5 L 330.0 714.5 L 332.0 712.5 L 333.0 712.5 L 335.0 710.5 L 336.0 710.5 L 342.5 704.0 L 342.5 703.0 L 344.5 701.0 L 344.5 700.0 L 346.5 698.0 L 346.5 697.0 L 347.5 696.0 L 347.5 695.0 L 349.5 692.0 L 349.5 690.0 L 351.5 687.0 L 351.5 684.0 L 352.5 683.0 L 352.5 680.0 L 353.5 679.0 L 353.5 676.0 L 354.5 675.0 L 354.5 669.0 L 355.5 668.0 L 355.5 352.0 L 354.5 351.0 L 354.5 347.0 L 353.5 346.0 L 353.5 342.0 L 352.5 341.0 L 352.5 338.0 L 351.5 337.0 L 351.5 335.0 L 350.5 334.0 L 350.5 332.0 L 349.5 331.0 L 349.5 330.0 L 348.5 329.0 L 348.5 328.0 L 346.5 325.0 L 346.5 324.0 L 345.5 323.0 L 345.5 322.0 L 342.5 319.0 L 342.5 318.0 L 337.0 312.5 L 336.0 312.5 L 333.0 309.5 L 332.0 309.5 L 330.0 307.5 L 329.0 307.5 L 327.0 305.5 L 326.0 305.5 L 323.0 303.5 L 321.0 303.5 L 318.0 301.5 L 316.0 301.5 L 315.0 300.5 L 314.0 300.5 L 313.0 299.5 L 312.0 299.5 L 309.5 297.0 L 309.5 294.0 L 312.0 291.5 L 332.0 291.5 L 333.0 290.5 L 345.0 290.5 L 346.0 289.5 L 354.0 289.5 L 355.0 288.5 L 362.0 288.5 L 363.0 287.5 L 368.0 287.5 L 369.0 286.5 L 375.0 286.5 L 376.0 285.5 L 380.0 285.5 L 381.0 284.5 L 386.0 284.5 L 387.0 283.5 L 390.0 283.5 L 391.0 282.5 L 395.0 282.5 L 396.0 281.5 L 400.0 281.5 L 401.0 280.5 L 404.0 280.5 L 405.0 279.5 L 409.0 279.5 L 410.0 278.5 L 413.0 278.5 L 414.0 277.5 L 417.0 277.5 L 418.0 276.5 L 421.0 276.5 L 422.0 275.5 L 425.0 275.5 L 426.0 274.5 L 429.0 274.5 L 430.0 273.5 L 432.0 273.5 L 433.0 272.5 L 435.0 272.5 L 436.0 271.5 L 439.0 271.5 L 440.0 270.5 L 448.0 270.5 L 449.0 271.5 L 450.0 271.5 L 450.5 272.0 L 450.5 273.0 L 452.5 276.0 L 452.5 298.0 L 451.5 299.0 L 451.5 304.0 L 452.5 305.0 L 452.5 519.0 L 451.5 520.0 L 451.5 539.0 L 452.5 540.0 L 451.5 541.0 L 453.0 542.5 L 455.0 540.5 L 456.0 540.5 L 460.0 536.5 L 461.0 536.5 L 467.0 530.5 L 468.0 530.5 L 483.5 515.0 L 483.5 514.0 L 486.5 511.0 L 486.5 510.0 L 490.5 506.0 L 490.5 505.0 L 493.5 502.0 L 493.5 501.0 L 496.5 498.0 L 496.5 497.0 L 499.5 494.0 L 499.5 493.0 L 501.5 491.0 L 501.5 490.0 L 502.5 489.0 L 502.5 488.0 L 504.5 486.0 L 504.5 485.0 L 506.5 483.0 L 506.5 482.0 L 508.5 480.0 L 508.5 479.0 L 509.5 478.0 L 509.5 477.0 L 511.5 475.0 L 511.5 474.0 L 513.5 472.0 L 513.5 471.0 L 516.5 468.0 L 516.5 467.0 L 518.5 465.0 L 518.5 464.0 L 519.5 463.0 L 519.5 462.0 L 521.5 460.0 L 521.5 459.0 L 522.5 458.0 L 522.5 457.0 L 524.5 455.0 L 524.5 454.0 L 526.5 452.0 L 526.5 451.0 L 528.5 449.0 L 528.5 448.0 L 531.5 445.0 L 531.5 444.0 L 533.5 442.0 L 533.5 441.0 L 535.5 439.0 L 535.5 438.0 L 536.5 437.0 L 536.5 436.0 L 538.5 434.0 L 538.5 433.0 L 540.5 431.0 L 540.5 430.0 L 542.5 428.0 L 542.5 427.0 L 545.5 424.0 L 545.5 423.0 L 547.5 421.0 L 547.5 420.0 L 549.5 418.0 L 549.5 417.0 L 552.5 414.0 L 552.5 413.0 L 554.5 411.0 L 554.5 410.0 L 558.5 406.0 L 558.5 405.0 L 561.5 402.0 L 561.5 401.0 L 564.5 398.0 L 564.5 397.0 L 567.5 394.0 L 567.5 393.0 L 569.0 391.5 L 570.0 391.5 L 572.5 389.0 L 572.5 388.0 L 580.0 380.5 L 581.0 380.5 L 586.0 375.5 L 587.0 375.5 L 590.0 372.5 L 591.0 372.5 L 593.0 370.5 L 594.0 370.5 L 596.0 368.5 L 597.0 368.5 L 598.0 367.5 L 599.0 367.5 L 601.0 365.5 L 602.0 365.5 L 603.0 364.5 L 604.0 364.5 L 607.0 362.5 L 609.0 362.5 L 610.0 361.5 L 611.0 361.5 L 614.0 359.5 L 617.0 359.5 L 618.0 358.5 L 620.0 358.5 L 621.0 357.5 L 624.0 357.5 L 625.0 356.5 L 628.0 356.5 L 629.0 355.5 L 633.0 355.5 L 634.0 354.5 L 641.0 354.5 L 642.0 353.5 L 663.0 353.5 L 664.0 354.5 L 668.0 354.5 L 669.0 355.5 L 673.0 355.5 L 674.0 356.5 L 677.0 356.5 L 680.0 358.5 L 682.0 358.5 L 684.0 360.5 L 685.0 360.5 L 687.0 362.5 L 688.0 362.5 L 690.5 365.0 L 690.5 366.0 L 691.5 367.0 L 691.5 368.0 L 692.5 369.0 L 692.5 370.0 L 693.5 371.0 L 693.5 374.0 L 694.5 375.0 L 694.5 382.0 L 693.5 383.0 L 693.5 388.0 L 692.5 389.0 L 692.5 392.0 L 691.5 393.0 L 691.5 394.0 L 690.5 395.0 L 690.5 397.0 L 689.5 398.0 L 689.5 399.0 L 688.5 400.0 L 688.5 401.0 L 687.5 402.0 L 687.5 403.0 L 685.5 405.0 L 685.5 406.0 L 682.5 409.0 L 682.5 410.0 L 675.0 417.5 L 674.0 417.5 L 672.0 419.5 L 671.0 419.5 L 670.0 420.5 L 669.0 420.5 L 668.0 421.5 L 666.0 421.5 L 663.0 423.5 L 661.0 423.5 L 660.0 424.5 L 657.0 424.5 L 656.0 425.5 L 652.0 425.5 L 651.0 426.5 L 642.0 426.5 L 641.0 427.5 L 610.0 427.5 L 609.0 428.5 L 605.0 428.5 L 604.0 429.5 L 602.0 429.5 L 601.0 430.5 L 599.0 430.5 L 598.0 431.5 L 596.0 431.5 L 595.0 432.5 L 594.0 432.5 L 593.0 433.5 L 592.0 433.5 L 591.0 434.5 L 590.0 434.5 L 589.0 435.5 L 588.0 435.5 L 587.0 436.5 L 586.0 436.5 L 584.0 438.5 L 583.0 438.5 L 581.0 440.5 L 580.0 440.5 L 579.0 441.5 L 578.0 441.5 L 575.0 444.5 L 574.0 444.5 L 571.0 447.5 L 570.0 447.5 L 564.0 453.5 L 563.0 453.5 L 558.0 458.5 L 557.0 458.5 L 521.5 494.0 L 521.5 495.0 L 519.5 496.0 L 519.5 497.0 L 521.5 499.0 L 521.5 500.0 L 528.5 507.0 L 528.5 508.0 L 532.5 512.0 L 532.5 513.0 L 536.5 517.0 L 536.5 518.0 L 544.5 526.0 L 544.5 527.0 L 548.5 531.0 L 548.5 532.0 L 553.5 537.0 L 553.5 538.0 L 557.5 542.0 L 557.5 543.0 L 564.5 550.0 L 564.5 551.0 L 569.5 556.0 L 569.5 557.0 L 576.5 564.0 L 576.5 565.0 L 582.5 571.0 L 582.5 572.0 L 586.5 576.0 L 586.5 577.0 L 592.5 583.0 L 592.5 584.0 L 597.5 589.0 L 597.5 590.0 L 601.5 594.0 L 601.5 595.0 L 608.5 602.0 L 608.5 603.0 L 613.5 608.0 L 613.5 609.0 L 619.5 615.0 L 619.5 616.0 L 626.5 623.0 L 626.5 624.0 L 631.5 629.0 L 631.5 630.0 L 637.5 636.0 L 637.5 637.0 L 643.5 643.0 L 643.5 644.0 L 648.5 649.0 L 648.5 650.0 L 654.5 656.0 L 654.5 657.0 L 661.5 664.0 L 661.5 665.0 L 679.0 682.5 L 680.0 682.5 L 687.0 689.5 L 688.0 689.5 L 693.0 694.5 L 694.0 694.5 L 696.0 696.5 L 697.0 696.5 L 699.0 698.5 L 700.0 698.5 L 702.0 700.5 L 703.0 700.5 L 705.0 702.5 L 706.0 702.5 L 708.0 704.5 L 709.0 704.5 L 711.0 706.5 L 712.0 706.5 L 713.0 707.5 L 714.0 707.5 L 715.0 708.5 L 716.0 708.5 L 717.0 709.5 L 718.0 709.5 L 719.0 710.5 L 720.0 710.5 L 721.0 711.5 L 722.0 711.5 L 723.0 712.5 L 725.0 712.5 L 726.0 713.5 L 727.0 713.5 L 728.0 714.5 L 729.0 714.5 L 730.0 715.5 L 731.0 715.5 L 732.0 716.5 L 734.0 716.5 L 737.0 718.5 L 739.0 718.5 L 740.0 719.5 L 741.0 719.5 L 742.0 720.5 L 743.0 720.5 L 744.5 722.0 L 744.5 727.0 L 743.0 728.5 L 742.0 728.5 L 741.0 729.5 Z" fill="#FFFFFF"/>
</svg>